<?xml version="1.0" encoding="utf-8"?>
<!-- Generator: Adobe Illustrator 25.2.0, SVG Export Plug-In . SVG Version: 6.00 Build 0)  -->
<svg version="1.1" id="Layer_1" xmlns="http://www.w3.org/2000/svg" xmlns:xlink="http://www.w3.org/1999/xlink" x="0px" y="0px"
	 viewBox="0 0 408 94.1" style="enable-background:new 0 0 408 94.1;" xml:space="preserve">
<style type="text/css">
	.st0{fill:url(#SVGID_1_);}
	.st1{fill:url(#SVGID_2_);}
	.st2{fill:url(#SVGID_3_);}
	.st3{fill:url(#SVGID_4_);}
	.st4{fill:url(#SVGID_5_);}
	.st5{fill:url(#SVGID_6_);}
	.st6{fill:url(#SVGID_7_);}
	.st7{fill:url(#SVGID_8_);}
	.st8{fill:url(#SVGID_9_);}
</style>
<g>
	<g>
		<linearGradient id="SVGID_1_" gradientUnits="userSpaceOnUse" x1="-3.9294" y1="47.0327" x2="411.4898" y2="47.0327">
			<stop  offset="0" style="stop-color:#542D5C"/>
			<stop  offset="1.226270e-02" style="stop-color:#572B5C"/>
			<stop  offset="0.1282" style="stop-color:#6F1B60"/>
			<stop  offset="0.2587" style="stop-color:#820F63"/>
			<stop  offset="0.4123" style="stop-color:#8F0665"/>
			<stop  offset="0.6092" style="stop-color:#970166"/>
			<stop  offset="0.9995" style="stop-color:#990066"/>
		</linearGradient>
		<path class="st0" d="M140.9,10c-1-1.3-8.1-10.7-16.3-9.9c-2,0.2-3.4,0.9-8,1.3c-3.3,0.3-4.2,0.1-6.4,0.3c-0.3,0-0.9,0.1-1.7,0.3
			c-1.7,0.4-4.3,1.2-7.9,3.1c-2.3,1.2-7.8,4.4-15.3,12.1C82,20.5,77.9,25.1,73.8,31c-0.2,0.3-0.4,0.6-0.7,0.9
			c-0.2-0.3-0.4-0.6-0.6-0.9c-4.2-6-8.2-10.5-11.5-13.9c-7.6-7.7-13-10.8-15.3-12.1C42,3.2,39.4,2.3,37.7,2
			c-0.8-0.2-1.4-0.3-1.7-0.3c-2.2-0.3-3,0-6.4-0.3c-4.6-0.4-6-1.1-8-1.3C13.5-0.7,6.3,8.7,5.3,10c-4.4,5.9-5.8,13.7-5.2,15
			c0.7,2.4,2.6,5.5,4.7,9.3c1.4,2.6,2,3.9,2.3,4.2c4.2,6.2,11.2,8.6,13.5,9.3c4.1,1.3,7.4,1.4,9,1.5c12.3,0.4,24.8,0.4,31.5,0.3
			c1.1,0,1.7,0,2.5,0c-4.3,6.2-20.9,27.5-19.9,37.6c0,0,7,4.7,10.1,6.8c0.8-11.2,15.1-31.7,19.3-38c4.2,6.3,18.5,26.8,19.3,38
			c3-2.2,10.1-6.8,10.1-6.8c0.9-10.1-15.6-31.4-19.9-37.6c0.8,0,1.4,0,2.5,0c6.7,0,19.3,0,31.5-0.3c1.5,0,4.9-0.2,9-1.5
			c2.3-0.7,9.3-3.1,13.5-9.3c0.2-0.4,0.9-1.7,2.3-4.2c2.1-3.8,4.1-6.9,4.7-9.3C146.7,23.7,145.3,15.9,140.9,10z M56.5,37.2
			c-14.7,0-25.7,0-32.1,0c-2.1,0-7.2-0.3-12.8-2.6c-2.4-1-4.2-2.1-5.4-2.9c0.2-2.8,1-10.7,7-18.1c5.8-7.1,13-9.7,15.7-10.4
			c3.4,1.7,7.5,4.3,11.9,7.8c9,7.3,18.8,22,21,26.3H56.5z M134.7,34.6c-5.7,2.3-10.8,2.6-12.8,2.6c-6.4,0-17.4,0-32.1,0h-5.3
			c2.2-4.3,12-19,21-26.3c4.4-3.5,8.5-6.1,11.9-7.8c2.7,0.8,9.9,3.3,15.7,10.4c6,7.4,6.9,15.4,7,18.1
			C138.9,32.5,137.1,33.7,134.7,34.6z"/>
	</g>
	<g>
		<linearGradient id="SVGID_2_" gradientUnits="userSpaceOnUse" x1="-3.9294" y1="46.4124" x2="411.4898" y2="46.4124">
			<stop  offset="0" style="stop-color:#542D5C"/>
			<stop  offset="1.226270e-02" style="stop-color:#572B5C"/>
			<stop  offset="0.1282" style="stop-color:#6F1B60"/>
			<stop  offset="0.2587" style="stop-color:#820F63"/>
			<stop  offset="0.4123" style="stop-color:#8F0665"/>
			<stop  offset="0.6092" style="stop-color:#970166"/>
			<stop  offset="0.9995" style="stop-color:#990066"/>
		</linearGradient>
		<path class="st1" d="M182.7,57.8h13.9v4.2h-18.3V30.8h4.5V57.8z"/>
		<linearGradient id="SVGID_3_" gradientUnits="userSpaceOnUse" x1="-3.9294" y1="46.4124" x2="411.4898" y2="46.4124">
			<stop  offset="0" style="stop-color:#542D5C"/>
			<stop  offset="1.226270e-02" style="stop-color:#572B5C"/>
			<stop  offset="0.1282" style="stop-color:#6F1B60"/>
			<stop  offset="0.2587" style="stop-color:#820F63"/>
			<stop  offset="0.4123" style="stop-color:#8F0665"/>
			<stop  offset="0.6092" style="stop-color:#970166"/>
			<stop  offset="0.9995" style="stop-color:#990066"/>
		</linearGradient>
		<path class="st2" d="M215.9,30.3c8.8,0,15.6,7,15.6,16.1s-6.8,16.1-15.6,16.1s-15.6-7-15.6-16.1S207,30.3,215.9,30.3z M215.9,58.3
			c6.4,0,11.2-5,11.2-11.8c0-6.7-4.8-11.8-11.2-11.8s-11.2,5.1-11.2,11.8C204.7,53.2,209.5,58.3,215.9,58.3z"/>
		<linearGradient id="SVGID_4_" gradientUnits="userSpaceOnUse" x1="-3.9294" y1="46.636" x2="411.4898" y2="46.636">
			<stop  offset="0" style="stop-color:#542D5C"/>
			<stop  offset="1.226270e-02" style="stop-color:#572B5C"/>
			<stop  offset="0.1282" style="stop-color:#6F1B60"/>
			<stop  offset="0.2587" style="stop-color:#820F63"/>
			<stop  offset="0.4123" style="stop-color:#8F0665"/>
			<stop  offset="0.6092" style="stop-color:#970166"/>
			<stop  offset="0.9995" style="stop-color:#990066"/>
		</linearGradient>
		<path class="st3" d="M242.5,58.4c-2-2.2-3.3-5.1-3.3-9.3V30.8h4.5v18.5c0,2.9,0.7,4.8,2,6.2c1.6,1.7,3.9,2.8,6.5,2.8
			c2.6,0,5-1,6.5-2.8c1.3-1.4,2-3.2,2-6.2V30.8h4.5v18.3c0,4.2-1.3,7.1-3.3,9.3c-2.4,2.5-5.9,4.1-9.7,4.1
			C248.4,62.5,244.9,60.9,242.5,58.4z"/>
		<linearGradient id="SVGID_5_" gradientUnits="userSpaceOnUse" x1="-3.9294" y1="46.4124" x2="411.4898" y2="46.4124">
			<stop  offset="0" style="stop-color:#542D5C"/>
			<stop  offset="1.226270e-02" style="stop-color:#572B5C"/>
			<stop  offset="0.1282" style="stop-color:#6F1B60"/>
			<stop  offset="0.2587" style="stop-color:#820F63"/>
			<stop  offset="0.4123" style="stop-color:#8F0665"/>
			<stop  offset="0.6092" style="stop-color:#970166"/>
			<stop  offset="0.9995" style="stop-color:#990066"/>
		</linearGradient>
		<path class="st4" d="M287,62.1h-3.1l-12.3-31.3h4.6l9.2,23.6l9.2-23.6h4.6L287,62.1z"/>
		<linearGradient id="SVGID_6_" gradientUnits="userSpaceOnUse" x1="-3.9294" y1="46.4124" x2="411.4898" y2="46.4124">
			<stop  offset="0" style="stop-color:#542D5C"/>
			<stop  offset="1.226270e-02" style="stop-color:#572B5C"/>
			<stop  offset="0.1282" style="stop-color:#6F1B60"/>
			<stop  offset="0.2587" style="stop-color:#820F63"/>
			<stop  offset="0.4123" style="stop-color:#8F0665"/>
			<stop  offset="0.6092" style="stop-color:#970166"/>
			<stop  offset="0.9995" style="stop-color:#990066"/>
		</linearGradient>
		<path class="st5" d="M320.8,43.1v4.2h-10.3v10.5h13.9v4.2H306V30.8h17.9V35h-13.4v8H320.8z"/>
		<linearGradient id="SVGID_7_" gradientUnits="userSpaceOnUse" x1="-3.9294" y1="46.4124" x2="411.4898" y2="46.4124">
			<stop  offset="0" style="stop-color:#542D5C"/>
			<stop  offset="1.226270e-02" style="stop-color:#572B5C"/>
			<stop  offset="0.1282" style="stop-color:#6F1B60"/>
			<stop  offset="0.2587" style="stop-color:#820F63"/>
			<stop  offset="0.4123" style="stop-color:#8F0665"/>
			<stop  offset="0.6092" style="stop-color:#970166"/>
			<stop  offset="0.9995" style="stop-color:#990066"/>
		</linearGradient>
		<path class="st6" d="M336.5,39.1v23H332V30.8h3.1l18.8,23v-23h4.5v31.3h-3.1L336.5,39.1z"/>
		<linearGradient id="SVGID_8_" gradientUnits="userSpaceOnUse" x1="-3.9294" y1="46.4124" x2="411.4898" y2="46.4124">
			<stop  offset="0" style="stop-color:#542D5C"/>
			<stop  offset="1.226270e-02" style="stop-color:#572B5C"/>
			<stop  offset="0.1282" style="stop-color:#6F1B60"/>
			<stop  offset="0.2587" style="stop-color:#820F63"/>
			<stop  offset="0.4123" style="stop-color:#8F0665"/>
			<stop  offset="0.6092" style="stop-color:#970166"/>
			<stop  offset="0.9995" style="stop-color:#990066"/>
		</linearGradient>
		<path class="st7" d="M368.7,30.8h4.5v31.3h-4.5V30.8z"/>
		<linearGradient id="SVGID_9_" gradientUnits="userSpaceOnUse" x1="-3.9294" y1="46.4124" x2="411.4898" y2="46.4124">
			<stop  offset="0" style="stop-color:#542D5C"/>
			<stop  offset="1.226270e-02" style="stop-color:#572B5C"/>
			<stop  offset="0.1282" style="stop-color:#6F1B60"/>
			<stop  offset="0.2587" style="stop-color:#820F63"/>
			<stop  offset="0.4123" style="stop-color:#8F0665"/>
			<stop  offset="0.6092" style="stop-color:#970166"/>
			<stop  offset="0.9995" style="stop-color:#990066"/>
		</linearGradient>
		<path class="st8" d="M387.9,47.3v14.7h-4.5V30.8h10.9c2.9,0,4.6,0.7,6.1,1.8c1.9,1.5,3.1,3.8,3.1,6.4c0,2.6-1.2,4.9-3.1,6.4
			c-1,0.8-2.1,1.4-3.7,1.7L408,62.1h-5.4l-11.1-14.7H387.9z M394.2,43.1c2,0,3-0.4,3.8-1.2c0.7-0.7,1.2-1.7,1.2-2.9
			s-0.4-2.1-1.2-2.9c-0.7-0.7-1.7-1.2-3.8-1.2h-6.3v8H394.2z"/>
	</g>
</g>
</svg>
