<?xml version="1.0" encoding="utf-8"?>
<!-- Generator: Adobe Illustrator 23.0.3, SVG Export Plug-In . SVG Version: 6.00 Build 0)  -->
<svg version="1.1" id="Layer_1" xmlns="http://www.w3.org/2000/svg" xmlns:xlink="http://www.w3.org/1999/xlink" x="0px" y="0px"
	 viewBox="0 0 207.8 15.2" style="enable-background:new 0 0 207.8 15.2;" xml:space="preserve">
<style type="text/css">
	.st0{fill:#565656;}
	.st1{opacity:0.5;fill:#565656;}
	.st2{opacity:0.75;fill:#565656;}
</style>
<path class="st0" d="M20.6,1.2l-2.8,13h-3.4l2.8-13H20.6z M34.7,9.6l1.8-4.9l1,4.9H34.7z M38.5,14.2h3.1l-2.7-13H36
	c-0.6,0-1.2,0.4-1.4,1l-5,12h3.5l0.7-1.9h4.3C38.1,12.3,38.5,14.2,38.5,14.2z M29.7,9.9c0-3.4-4.7-3.6-4.7-5.1
	c0.1-0.7,0.7-1.1,1.4-1.1c1.1-0.1,2.3,0.1,3.3,0.6l0.6-2.8c-1-0.4-2.1-0.6-3.1-0.6c-3.3,0-5.7,1.8-5.7,4.3c0,1.9,1.7,2.9,2.9,3.5
	c1.3,0.6,1.8,1,1.7,1.6c0,0.9-1,1.3-2,1.3c-1.2,0-2.4-0.3-3.5-0.8L20,13.6c1.2,0.5,2.5,0.7,3.7,0.7C27.4,14.4,29.7,12.6,29.7,9.9
	 M15.8,1.2l-5.4,13H6.8L4.1,3.8c0-0.5-0.4-0.9-0.8-1.1C2.3,2.2,1.2,1.8,0,1.6l0.1-0.4h5.7c0.8,0,1.4,0.6,1.5,1.3L8.7,10l3.6-8.8
	H15.8z"/>
<path class="st0" d="M183.3,6.6V5.3c0-0.5-0.5-1-1-1h-1.4v2.3h-1.5V0.1h3.7c0.9-0.1,1.8,0.5,1.9,1.4V2c0,0.6-0.3,1.2-0.9,1.5
	c0.5,0.3,0.8,0.9,0.7,1.5v1.6H183.3 M180.8,2.8h1.6c0.3,0.1,0.7-0.1,0.8-0.4s-0.1-0.7-0.4-0.8h-2L180.8,2.8 M202.1,6.6l-2.4-4.4v4.4
	h-3l-0.5-1.4h-2.8l-0.5,1.4h-3.2c0,0-2-0.3-2-3.1c0-3.4,1.7-3.5,2.4-3.5h1.9v1.5h-1.5c-0.7,0.1-1.2,0.7-1.1,1.4v0.5
	c0,2.2,2.6,1.5,2.7,1.5L194,0h2.1l2.3,5.9V0.1h2.1l2.4,4.3V0.1h1.5v6.6L202.1,6.6 M194.1,3.6h1.5l-0.7-1.9L194.1,3.6 M171.4,6.6V2.1
	l-1.9,4.5h-1.2l-1.9-4.5v4.5h-3l-0.5-1.4h-2.8l-0.5,1.4h-1.7l2.5-6.6h2.1l2.3,6V0.1h2.4l1.7,4.1l1.7-4.1h2.4v6.6L171.4,6.6
	 M160.7,3.6h1.5l-0.7-1.9L160.7,3.6 M173.8,6.6V0.1h4.7v1.5h-3.2v1h3.1v1.5h-3.1v1.1h3.2v1.4H173.8 M185.6,6.7V0.1h1.5v6.6H185.6
	 M188.9,15.1v-1.3c0-0.6-0.5-1-1.1-1h-1.6v2.3h-1.6V8.6h3.9c1-0.2,1.9,0.5,2,1.5v0.4c0,0.6-0.3,1.2-0.9,1.5c0.5,0.3,0.8,0.9,0.8,1.5
	v1.6H188.9 M186.3,11.3h1.7c0.3,0.1,0.7-0.1,0.8-0.4c0.1-0.3-0.1-0.7-0.4-0.8c-0.1-0.1-0.3-0.1-0.4,0h-1.7L186.3,11.3 M178.2,15.1
	h-1.4l-1.7-1.9l-1.7,1.9h-6V8.6h5.9l1.8,2.1l1.9-2.1h5.1c1-0.1,1.9,0.5,2,1.5v0.4c0,1.9-0.7,2.5-2.8,2.5h-1.6v2.1H178.2 M176.2,11.9
	l2,2.3V9.7L176.2,11.9 M169,13.7h3.4l1.6-1.8l-1.6-1.8H169v1h3.3v1.5H169V13.7 M179.8,11.3h1.7c0.3,0.1,0.7-0.1,0.8-0.4
	c0.1-0.3-0.1-0.7-0.4-0.8c-0.1-0.1-0.3-0.1-0.4,0h-1.7L179.8,11.3 M199.9,15.1H197v-1.5h2.5c0,0,0.9,0.1,0.9-0.5s-1.4-0.5-1.4-0.5
	c-1.1,0.2-2-0.6-2.2-1.6v-0.3c-0.1-1,0.7-1.9,1.7-2h3.4v1.4h-2.5c0,0-0.9-0.2-0.9,0.5c0,0.5,1.2,0.5,1.2,0.5s2.5-0.2,2.5,1.8
	c0.1,1.1-0.6,2.1-1.8,2.3H200L199.9,15.1 M191.3,15.1V8.6h5v1.5h-3.4v1h3.3v1.5h-3.3v1.1h3.4v1.4H191.3 M205.5,15.1h-2.9v-1.5h2.5
	c0,0,0.9,0.1,0.9-0.5s-1.4-0.5-1.4-0.5c-1.1,0.2-2-0.6-2.2-1.7v-0.3c-0.1-1,0.7-1.9,1.7-2h3.4v1.5H205c0,0-0.9-0.2-0.9,0.5
	c0,0.5,1.2,0.5,1.2,0.5s2.5-0.2,2.5,1.8c0.1,1.1-0.6,2.1-1.8,2.3h-0.4C205.6,15.1,205.6,15.1,205.5,15.1"/>
<path class="st0" d="M93.1,5c-0.6,0-1.4,0.2-1.8,0.9C91,5.4,90.4,5,89.6,5c-0.5,0-1.1,0.1-1.5,0.7V5.1H87V10h1.1V7.3
	c0-0.8,0.6-1.3,1.3-1.3c0.7,0,1.1,0.5,1.1,1.3V10h1.1V7.3c0-0.8,0.6-1.3,1.3-1.3C93.6,6,94,6.5,94,7.3V10h1.1V7
	C95.1,5.8,94.3,5,93.1,5z M100,5.8c-0.3-0.4-0.8-0.7-1.5-0.7c-1.4,0-2.4,1.1-2.4,2.6s1.1,2.6,2.4,2.6c0.7,0,1.2-0.3,1.5-0.7V10h1.1
	V5.1H100V5.8z M98.6,9.2c-0.9,0-1.5-0.7-1.5-1.6c0-0.9,0.6-1.6,1.5-1.6s1.5,0.7,1.5,1.6S99.5,9.2,98.6,9.2z M104.8,7.1L104.3,7
	c-0.4-0.1-0.8-0.2-0.8-0.5s0.3-0.6,0.9-0.6s1.2,0.2,1.5,0.4l0.5-0.8c-0.5-0.3-1.2-0.5-2-0.5c-1.2,0-2,0.6-2,1.6
	c0,0.8,0.6,1.3,1.6,1.4l0.5,0.1c0.6,0.1,0.8,0.3,0.8,0.5c0,0.4-0.4,0.6-1.1,0.6c-0.8,0-1.3-0.2-1.6-0.5l-0.5,0.8
	c0.7,0.5,1.6,0.6,2.1,0.6c1.4,0,2.2-0.7,2.2-1.6C106.5,7.7,105.9,7.3,104.8,7.1z M110.2,9.2c-0.4,0-0.8-0.3-0.8-0.9V6.2h1.9v-1h-1.9
	V3.7h-1.1v1.5h-1v1h1v2.1c0,1.3,0.6,1.9,1.7,1.9c0.6,0,1.1-0.2,1.5-0.5l-0.4-0.9C110.8,9,110.5,9.2,110.2,9.2z M114.6,5
	c-1.4,0-2.4,1-2.4,2.6s1,2.6,2.5,2.6c0.7,0,1.4-0.2,2-0.7l-0.5-0.8c-0.4,0.3-0.9,0.5-1.4,0.5c-0.7,0-1.3-0.4-1.4-1.2h3.6V7.6
	C116.9,6.1,116,5,114.6,5z M113.3,7.2c0.1-0.7,0.5-1.2,1.3-1.2c0.7,0,1.1,0.4,1.2,1.2H113.3z M119.2,5.7V5.1h-1.1V10h1.1V7.3
	c0-0.8,0.5-1.3,1.2-1.3c0.3,0,0.6,0.1,0.8,0.2l0.3-1.1C121.3,5,121,5,120.7,5C120,5,119.5,5.2,119.2,5.7z M124.2,6
	c0.5,0,0.8,0.2,1.2,0.5l0.7-0.7C125.7,5.3,125,5,124.3,5c-1.5,0-2.6,1.1-2.6,2.6s1,2.6,2.6,2.6c0.7,0,1.4-0.3,1.8-0.8l-0.7-0.7
	c-0.3,0.3-0.7,0.5-1.2,0.5c-0.8,0-1.4-0.6-1.4-1.6S123.4,6,124.2,6z M130.6,5.8c-0.3-0.4-0.8-0.7-1.5-0.7c-1.4,0-2.4,1.1-2.4,2.6
	s1.1,2.6,2.4,2.6c0.7,0,1.2-0.3,1.5-0.7V10h1.1V5.1h-1.1V5.8z M129.2,9.2c-0.9,0-1.5-0.7-1.5-1.6c0-0.9,0.6-1.6,1.5-1.6
	c0.9,0,1.5,0.7,1.5,1.6S130.1,9.2,129.2,9.2z M134.3,5.7V5.1h-1.1V10h1.1V7.3c0-0.8,0.5-1.3,1.2-1.3c0.3,0,0.6,0.1,0.8,0.2l0.3-1.1
	C136.4,5,136.1,5,135.8,5C135.1,5,134.6,5.2,134.3,5.7z M140.7,2.7v3c-0.3-0.4-0.8-0.7-1.5-0.7c-1.4,0-2.4,1.1-2.4,2.6
	s1.1,2.6,2.4,2.6c0.7,0,1.2-0.3,1.5-0.7V10h1.1V2.7C141.8,2.7,140.7,2.7,140.7,2.7z M139.3,9.2c-0.9,0-1.5-0.7-1.5-1.6
	c0-0.9,0.6-1.6,1.5-1.6s1.5,0.7,1.5,1.6S140.2,9.2,139.3,9.2z M67.1,7.6c0-2.4,1.1-4.5,2.8-5.9c-1.3-1-2.9-1.6-4.6-1.6
	c-4.1-0.1-7.4,3.3-7.4,7.5s3.3,7.6,7.4,7.6c1.7,0,3.3-0.6,4.6-1.6C68.2,12.1,67.1,10,67.1,7.6z"/>
<path class="st1" d="M74.5,0c-1.7,0-3.3,0.6-4.6,1.6c1.7,1.4,2.8,3.5,2.8,5.9s-1.1,4.5-2.8,5.9c1.3,1,2.9,1.6,4.6,1.6
	c4.1,0,7.4-3.4,7.4-7.5S78.6,0,74.5,0z"/>
<path class="st2" d="M72.7,7.6c0-2.4-1.1-4.5-2.8-5.9c-1.7,1.4-3.8,3.5-3.8,5.9s2,4.5,3.8,5.9C71.6,12.1,72.7,10,72.7,7.6z"/>
</svg>
