<?xml version="1.0" encoding="utf-8"?>
<!-- Generator: Adobe Illustrator 25.2.0, SVG Export Plug-In . SVG Version: 6.00 Build 0)  -->
<svg version="1.1" id="Layer_1" xmlns="http://www.w3.org/2000/svg" xmlns:xlink="http://www.w3.org/1999/xlink" x="0px" y="0px"
	 viewBox="0 0 22.1 26" style="enable-background:new 0 0 22.1 26;" xml:space="preserve">
<style type="text/css">
	.st0{fill:#333333;}
</style>
<path class="st0" d="M11.1,0c-2.7,0-5,2.3-5,5v1H1.1L1.1,6.9l-1,18L0,26h22.1l-0.1-1.1l-1-18L21,6h-4.9V5C16.1,2.3,13.8,0,11.1,0z
	 M11.1,2c1.7,0,3,1.3,3,3v1h-6V5C8.1,3.3,9.4,2,11.1,2z M3,8h3.1v3h2V8h6v3h2V8h3.1L20,24H2.1L3,8z"/>
</svg>
